<?xml version="1.0" encoding="iso-8859-1"?>
<!-- Generator: Adobe Illustrator 19.0.0, SVG Export Plug-In . SVG Version: 6.00 Build 0)  -->
<svg version="1.1" id="Capa_1" xmlns="http://www.w3.org/2000/svg" xmlns:xlink="http://www.w3.org/1999/xlink" x="0px" y="0px"
	 viewBox="0 0 490.8 490.8" style="enable-background:new 0 0 490.8 490.8;" xml:space="preserve">
<g>
	<g>
		<g>
			<path d="M138.8,310.45l48.3-33.2l48.3,33.2c4.7,3.2,11-0.1,11-5.8v-181v-39c0-4.3-3.5-7.8-7.8-7.8H66.7
				c-19,0-34.4,15.4-34.4,34.4v241.4h-1.7H0v23.4c0,21,17,38,38,38h36.4h342h36.4c21,0,38-17,38-38v-23.4h-30.7h-1.7v-241.5
				c0-19-15.4-34.4-34.4-34.4H300.5c-4.3,0-7.8,3.5-7.8,7.8v31.3c0,4.3,3.5,7.8,7.8,7.8h111v228.9H291.4v2.3c0,7.2-5.8,13-13,13h-66
				c-7.2,0-13-5.9-13-13v-2.3H79.2v-228.8h48.6v181C127.8,310.35,134.2,313.65,138.8,310.45z M153.3,180.35l21.5-1.6l8.1-20.1
				c1.5-3.8,6.8-3.8,8.4,0l8.1,20.1l21.5,1.6c4,0.3,5.7,5.4,2.6,8l-16.5,14l5.2,21.1c1,4-3.3,7.1-6.8,5l-18.3-11.5l-18.3,11.5
				c-3.4,2.2-7.7-1-6.8-5l5.2-21.1l-16.5-14C147.6,185.75,149.3,180.65,153.3,180.35z"/>
		</g>
	</g>
</g>
<g>
</g>
<g>
</g>
<g>
</g>
<g>
</g>
<g>
</g>
<g>
</g>
<g>
</g>
<g>
</g>
<g>
</g>
<g>
</g>
<g>
</g>
<g>
</g>
<g>
</g>
<g>
</g>
<g>
</g>
</svg>
