<?xml version="1.0" encoding="utf-8"?>
<!-- Svg Vector Icons : http://www.onlinewebfonts.com/icon -->
<!DOCTYPE svg PUBLIC "-//W3C//DTD SVG 1.1//EN" "http://www.w3.org/Graphics/SVG/1.1/DTD/svg11.dtd">
<svg version="1.1" xmlns="http://www.w3.org/2000/svg" xmlns:xlink="http://www.w3.org/1999/xlink" x="0px" y="0px" viewBox="0 0 1000 1000" enable-background="new 0 0 1000 1000" xml:space="preserve">
<metadata> Svg Vector Icons : http://www.onlinewebfonts.com/icon </metadata>
<g><g transform="translate(0.000000,511.000000) scale(0.100000,-0.100000)"><path d="M2729,2940.1c15.3-24.9,530.4-911.4,1145-1972.3C4486.8-94.9,4996.2-962.3,5003.8-962.3c11.5,0,451.9,754.4,2100.6,3605.6l195.3,338.9H5000H2702.2L2729,2940.1z M6704.2,2562.9C6392.1,2009.5,5011.5-366.8,5003.8-366.8c-7.7,0-1646.7,2822.4-1729.1,2977.5l-32.6,65.1h1763.5h1763.5L6704.2,2562.9z"/><path d="M1289.1-707.6C684-1755,168.9-2647.3,144-2687.5l-44-74.7h2292c2163.7,0,2290.1,1.9,2278.6,32.5c-19.2,49.8-2234.6,3879.4-2259.5,3906.2C2395.9,1191.9,2101,697.9,1289.1-707.6z M3284.3-929.7l875.1-1516.5l-1754-5.7c-965.1-1.9-1757.8-1.9-1761.6,1.9c-7.7,9.6,1742.5,3038.8,1755.9,3036.9C2405.4,586.8,2803.7-94.9,3284.3-929.7z"/><path d="M7594.6,1178.5c-7.7-13.4-524.7-903.8-1147-1978L5317.9-2752.6l1145.1-5.7c629.9-1.9,1660.1-1.9,2292,0l1145.1,5.7l-1143.2,1978C7981.3,565.7,7606,1195.7,7594.6,1178.5z M8492.6-927.8c482.5-832.9,873.1-1518.4,871.2-1522.3c-3.9-3.8-796.6-3.8-1761.6-1.9l-1755.9,5.7l877,1516.5c480.6,834.9,878.9,1516.5,884.6,1516.5C7613.7,586.8,8012-94.9,8492.6-927.8z"/></g></g>
</svg>