<?xml version="1.0" encoding="utf-8"?>
<!-- Svg Vector Icons : http://www.onlinewebfonts.com/icon -->
<!DOCTYPE svg PUBLIC "-//W3C//DTD SVG 1.1//EN" "http://www.w3.org/Graphics/SVG/1.1/DTD/svg11.dtd">
<svg version="1.1" xmlns="http://www.w3.org/2000/svg" xmlns:xlink="http://www.w3.org/1999/xlink" x="0px" y="0px" viewBox="0 0 1000 1000" enable-background="new 0 0 1000 1000" xml:space="preserve">
<metadata> Svg Vector Icons : http://www.onlinewebfonts.com/icon </metadata>
<g><g transform="translate(0.000000,511.000000) scale(0.100000,-0.100000)"><path d="M2743.5,2907.4c24.9-40.2,540.2-932.9,1145.5-1980.7C4494.3-123,4994.3-981.2,5000-981.2s503.8,856.3,1109.1,1904.1c603.4,1045.9,1118.7,1938.5,1145.5,1980.7l46,78.5H5000H2699.4L2743.5,2907.4z"/><path d="M2324,1089.6c-34.5-59.4-547.8-950.1-1141.7-1976.9L100-2755l1147.4-5.7c630.2-1.9,1662.7-1.9,2292.9,0l1147.4,5.7L3551.8-793.4C2927.4,285,2410.2,1173.9,2400.6,1183.4C2391,1193,2358.4,1152.8,2324,1089.6z"/><path d="M7593.7,1179.6c-9.6-15.3-526.8-906.1-1149.3-1980.7L5312.2-2755l1147.4-5.7c630.2-1.9,1660.8-1.9,2292.9,0L9900-2755L8817.7-887.3C8223.9,139.5,7708.6,1030.2,7674.1,1091.5C7628.2,1173.9,7605.2,1196.8,7593.7,1179.6z"/></g></g>
</svg>